<svg xmlns="http://www.w3.org/2000/svg" xmlns:xlink="http://www.w3.org/1999/xlink" viewBox="0 0 1530.14 849.83"><defs><style>.cls-1{fill:none;}.cls-2{clip-path:url(#clip-path);}.cls-3{fill:url(#linear-gradient);}.cls-4{clip-path:url(#clip-path-2);}.cls-5{fill:url(#linear-gradient-2);}.cls-6{clip-path:url(#clip-path-3);}.cls-7{fill:url(#linear-gradient-3);}.cls-8{clip-path:url(#clip-path-4);}.cls-9{fill:url(#linear-gradient-4);}.cls-10{clip-path:url(#clip-path-5);}.cls-11{fill:url(#linear-gradient-5);}.cls-12{clip-path:url(#clip-path-6);}.cls-13{fill:url(#linear-gradient-6);}.cls-14{clip-path:url(#clip-path-7);}.cls-15{fill:url(#linear-gradient-7);}.cls-16{clip-path:url(#clip-path-8);}.cls-17{fill:url(#linear-gradient-8);}.cls-18{clip-path:url(#clip-path-9);}.cls-19{fill:url(#linear-gradient-9);}.cls-20{clip-path:url(#clip-path-10);}.cls-21{fill:url(#linear-gradient-10);}.cls-22{clip-path:url(#clip-path-11);}.cls-23{fill:url(#linear-gradient-11);}.cls-24{fill:#fff;}</style><clipPath id="clip-path" transform="translate(202.95 202.95)"><path class="cls-1" d="M191.45,412.52a62.76,62.76,0,0,0,14.07,2.56c1.12.12,2.22.23,3.28.36,7,.83,14.95,2.37,20.27,7.48a1.42,1.42,0,0,0,.29.21,59.1,59.1,0,0,0,15.7,15.23c-23.64-3.84-41-13.89-53.61-25.84m28.38,28.83a68.35,68.35,0,0,1-21.26-3.51c-3.4-1.89-7.42-7-8.55-10.88a56.44,56.44,0,0,1-1.47-7.65c-.24-1.65-.49-3.36-.83-5-.15-.75-.32-1.46-.5-2.15,1.38,1.39,2.78,2.74,4.24,4,13.94,12.53,30.93,20.67,50.6,24.28-6.67.61-13.39.92-20.09.92l-2.14,0M162.66,413c-2.56-4.11-3.76-12.6-3.08-17.17a80.54,80.54,0,0,1,1.8-8.15c.56-2.18,1.13-4.42,1.56-6.69a36.16,36.16,0,0,0,.54-4.83,118,118,0,0,0,16.07,27.36,1.28,1.28,0,0,0,.37.56l.33.31c.61.76,1.23,1.51,1.86,2.24a22.91,22.91,0,0,1,3.09,8.17c.32,1.61.57,3.28.8,4.9a60.86,60.86,0,0,0,1.55,8,22.52,22.52,0,0,0,4.28,7.54A84.74,84.74,0,0,1,162.66,413m46.45-.1-3.33-.35c-6.45-.66-13.74-1.42-19.73-5.51a115.86,115.86,0,0,1-21.82-35.87c7.34,6.65,16.61,9.08,23.69,10.93,1.83.48,3.7.9,5.51,1.31A69,69,0,0,1,205.75,387c5.44,2.37,9.39,6,11.12,10.24.19.68.38,1.37.59,2a80.73,80.73,0,0,0,8,18c-5.07-2.67-11-3.73-16.37-4.37m-96.31-42a4.77,4.77,0,0,1-2.47-3.86,6.67,6.67,0,0,1,2.06-5.8,8.32,8.32,0,0,1,1.2-.83c2.55.36,4.32,1.3,5.27,2.81a6,6,0,0,1,.42,5,4.67,4.67,0,0,1-2.69,2.68,5.18,5.18,0,0,1-1.94.4,4.12,4.12,0,0,1-1.85-.42m38.09,25a95.16,95.16,0,0,1-10.28-32v0a27.93,27.93,0,0,1,3.37-14.4c1.21-2.06,2.6-4.08,3.94-6s2.78-4,4-6.17c.6-1,1.32-2.35,2-3.87A118.27,118.27,0,0,0,160.36,368a34.12,34.12,0,0,1,0,12.46c-.41,2.18-1,4.39-1.52,6.52a81.67,81.67,0,0,0-1.85,8.42,34.34,34.34,0,0,0,.63,11.23,95.65,95.65,0,0,1-6.78-10.79m55.88-11.26A71.34,71.34,0,0,0,194,380.88c-1.79-.4-3.64-.82-5.43-1.28-8.54-2.24-19.15-5-26.31-14.36a16.91,16.91,0,0,0-.7-1.78,119.42,119.42,0,0,1-5.12-37.37,16.47,16.47,0,0,0,2.67,3.49c3.07,3,7.06,4.67,10.19,5.82,2.27.84,4.6,1.57,6.87,2.27A82.94,82.94,0,0,1,187.75,342c7.85,3.85,15.76,12,19.7,20.38,2.36,6.85,4.1,13.95,5.8,20.9.54,2.23,1.1,4.49,1.67,6.76a27.06,27.06,0,0,0-8.15-5.37M65.33,317a85,85,0,0,0,28.21-10.11h0c-.22.25-.43.51-.64.76h0a73.17,73.17,0,0,1-21.22,13.52,46.41,46.41,0,0,1-24.61,3A35.12,35.12,0,0,1,29,315.54a89.12,89.12,0,0,0,21.81,2.7A87.66,87.66,0,0,0,65.33,317M141,332.67a120.82,120.82,0,0,1,20.8-49.81,141.16,141.16,0,0,0-7.48,34.63.43.43,0,0,0,0,.05c0,.31-.06.62-.07.94l0,.34c-.15,1.95-.24,3.89-.3,5.82a31.64,31.64,0,0,1-4.21,11.29c-1.21,2.05-2.59,4.06-3.93,6s-2.79,4.05-4.05,6.19a25.53,25.53,0,0,0-2.07,4.66A105.88,105.88,0,0,1,141,332.67m47.84,7a84,84,0,0,0-11.95-4.42c-2.23-.7-4.53-1.42-6.74-2.23-2.9-1.06-6.57-2.63-9.29-5.26-2.29-2.21-4.47-6.42-4-9.85a1.51,1.51,0,0,0,0-.37A137,137,0,0,1,166,279.07c-.53,13.07,5.48,25.73,11.31,34.79,3.24,5.05,6.91,9.92,10.45,14.62,5.18,6.88,10.53,14,14.56,21.68a45.72,45.72,0,0,0-13.4-10.52m-70.67-37.29c7.7-11.73,20.11-22.55,35.9-31.29l2.13-.69h0a132.23,132.23,0,0,0-30.56,29.93,126.16,126.16,0,0,0-19.36,38.49,70.21,70.21,0,0,1,11.89-36.44M15.49,296.17c-1.72-6.86-1.16-14.27.87-21.39A14.16,14.16,0,0,1,23,268.2c1.24-.52,2.51-1,3.86-1.51l1.45-.55a53.35,53.35,0,0,0-8.69,17.06,61.41,61.41,0,0,0-2.7,16.88c-.5-1.3-1-2.61-1.45-3.91M22.1,284c2.63-8.37,6.48-15.07,11.7-20.23a.83.83,0,0,0,.21-.16A26.9,26.9,0,0,0,32.87,269a70.58,70.58,0,0,0-.67,12.19C32.56,287,30.5,293.2,27,297a22.41,22.41,0,0,0-7.46,6,60,60,0,0,1,2.61-19m156.3-22.41h0q-2.4.58-4.8,1.21c.21-.39.41-.78.63-1.16h.47c1.25,0,2.49,0,3.71-.07M19.84,307.28a18.27,18.27,0,0,1,8.21-8,1.2,1.2,0,0,0,.45-.23,70.88,70.88,0,0,1,8.94-3.58c1.08-.37,2.19-.76,3.28-1.16,7.24-2.67,15.05-4.06,22.6-5.4l3.36-.6c3.35-.6,6.9-1.29,10.5-2.17A4.82,4.82,0,0,0,78,286a69.69,69.69,0,0,0,14.77-5.34A102.43,102.43,0,0,0,107.29,271c2-1.49,4-3,6.11-4.46,7.71-5.37,16.13-8.64,23.14-9,9.08,1.44,18.23,2.77,27,3.57,2.64.25,5.24.39,7.81.46l-1.12,2.09h0q-3,.78-5.91,1.61l-.1,0-.08,0q-5.48,1.53-10.82,3.29l0,0-.06,0h-.05a155.11,155.11,0,0,0-23.4,9.72,127.14,127.14,0,0,0-28.91,20.75h0A84,84,0,0,1,64.9,314.51a86.26,86.26,0,0,1-39.58-2.67,1.29,1.29,0,0,0-1.39,2A36.82,36.82,0,0,0,46.65,326.8a43.52,43.52,0,0,0,7.07.57,51.52,51.52,0,0,0,18.9-3.76,68.06,68.06,0,0,0,14.25-7.85A84.82,84.82,0,0,0,76.22,338c-3.43,11.15-4,22.09-1.64,31.64,2.76,11.19,9.56,20.45,18.65,25.42a31.44,31.44,0,0,0,15,3.81,27.86,27.86,0,0,0,16.13-4.91,23.46,23.46,0,0,0,10-17.31,19.46,19.46,0,0,0-9.05-17.74c-4-2.36-10.28-3.23-14.59.43a9.3,9.3,0,0,0-3,8.08,7.29,7.29,0,0,0,3.89,5.85,7.49,7.49,0,0,0,10-4.13,8.47,8.47,0,0,0-.67-7.22,7.75,7.75,0,0,0-2.57-2.48,12.46,12.46,0,0,1,5.55,1.69,16.8,16.8,0,0,1,7.78,15.36,20.86,20.86,0,0,1-9,15.38c-7.83,5.55-19.24,5.93-28.39.93-8.33-4.55-14.84-13.44-17.38-23.77-2.25-9.1-1.7-19.57,1.6-30.27,7.12-23.16,26.17-44.32,52.26-58.06,3.51-1.85,7.16-3.53,10.91-5.08-11,7.53-19.66,16-25.79,25.36-9.51,14.48-13.74,31.06-11.91,46.69a1.28,1.28,0,0,0,1.21,1.13h.06a1.29,1.29,0,0,0,1.26-1c6.86-32,29.22-62.68,58.37-80,1.19-.34,2.38-.67,3.58-1h0c-.31.64-.63,1.27-.93,1.91q-1.29,2.7-2.46,5.44c-14.13,17.48-23.36,37.55-26.74,58.17-3.72,22.72-.12,45.74,10.13,64.84a98.69,98.69,0,0,0,25.94,30.75,77.85,77.85,0,0,0,21.84,12C116.77,430.6,50,378.5,19.84,307.28m67.51-29.61A48.25,48.25,0,0,0,93,267.88l.57-1.19c1.69-3.51,3.58-7.17,6.46-9.92a13.15,13.15,0,0,1,9.89-3.47c5.78.85,11.6,1.8,17.37,2.75l1.43.23a56.53,56.53,0,0,0-16.8,8.13c-2.09,1.46-4.17,3-6.17,4.51a102.25,102.25,0,0,1-14.18,9.41A58.62,58.62,0,0,1,84,281.52c1.21-1.24,2.37-2.59,3.38-3.85M34.77,281a69.11,69.11,0,0,1,.65-11.74c.5-4.38,1.84-7.76,4-10.07,6.11-4.14,13.63-6.78,22.71-8.05,2.35-.32,4.78-.55,7.26-.69a16.94,16.94,0,0,0-6.81,7.9A31.09,31.09,0,0,0,61,265.92c-.14,1.12-.27,2.28-.47,3.39-1.2,6.84-5.19,16.18-12.48,20.09a83.23,83.23,0,0,0-8.19,2.51c-1.07.39-2.17.78-3.24,1.15-1.65.58-3.31,1.16-4.94,1.8A25.71,25.71,0,0,0,34.77,281M63,269.75c.21-1.18.35-2.37.49-3.52a28.81,28.81,0,0,1,1.42-7c1.82-4.72,7.18-8.57,12.51-9a214.76,214.76,0,0,1,24.75,2,15.27,15.27,0,0,0-3.93,2.68c-3.19,3-5.21,6.94-7,10.66-.2.4-.39.81-.58,1.21a46.54,46.54,0,0,1-5.34,9.28c-3.28,4.07-6.29,6.82-8.08,7.43-3.7.93-7.42,1.64-11,2.3-1.11.21-2.23.4-3.35.6-2.89.52-5.83,1-8.77,1.64,5-5,7.87-12.25,8.93-18.28M27.24,253.61c6.73-7.11,20.08-10.13,28.37-8.49a70.61,70.61,0,0,1,7.92,2.24c.77.25,1.55.51,2.33.75-1.39.13-2.77.28-4.13.47-9.28,1.29-17.08,4.06-23.5,8.35a1.35,1.35,0,0,0-.62.36l-.13.15a43.12,43.12,0,0,0-5,4.11,63.35,63.35,0,0,1-6.5,2.74c-1.31.49-2.67,1-3.95,1.55a13.83,13.83,0,0,0-3.14,1.88,64.79,64.79,0,0,1,8.36-14.11m83.91-2.72h0c-.29,0-.59-.09-.88-.12l-3.6-.52c-4.88-1.62-9.76-5.79-13.57-9.37a66.2,66.2,0,0,0-9.1-7.29c.67.15,1.33.31,2,.48,9,2.37,17.31,7,25.4,11.42,5,2.75,10.07,5.54,15.37,7.87-5.18-.84-10.4-1.69-15.6-2.46m-75.42-5.95A59.59,59.59,0,0,1,76,232.43c5.52,1.76,11.39,6.56,15.37,10.31a67.45,67.45,0,0,0,7.88,6.53,206,206,0,0,0-21.53-1.57,1.22,1.22,0,0,0-.27,0H76a1,1,0,0,0-.34-.07c-3.85-.25-7.51-1.44-11.37-2.7a71.77,71.77,0,0,0-8.22-2.32c-5.77-1.14-13.76-.27-20.73,2.63l.35-.29M196.88,206.7c-3.73,3.09-7.55,6-11.49,8.75-17.36,12-34.29,18.51-51.53,19.87,15.44-6.55,30.26-16.92,44.69-28.46l.47,0,1.87.09c2,.11,4,.16,6,.16q5,0,10-.44m7.19,70.2a109.74,109.74,0,0,1,14.36-7.64c2.24-1.05,4.55-2.14,6.8-3.28,23.65-12,43.73-33.79,61.36-66.49a170.11,170.11,0,0,1,23.24-25.32,296.13,296.13,0,0,0-27.22,45.08c-8.4,17.51-24.15,33.45-45.55,46.08-5.69,3.36-11.79,6.32-17.69,9.18-9.47,4.59-19.22,9.32-27.67,15.88,2.84-6.13,8.08-10.63,12.37-13.49m-54-76c20.15-9,38.88-19,57-28.84,9.28-5,18.72-10.09,28.4-15.05-12.3,8.76-24.37,19.06-36.22,29.17-7.1,6.07-14.27,12.19-21.54,18-9.34-.49-18.85-1.08-27.69-3.31M38.87,163.08a4.05,4.05,0,0,1-1.29-3.5A4.92,4.92,0,0,1,40.11,156a4.65,4.65,0,0,1,2.23-.53,6.15,6.15,0,0,1,1.91.31,5.37,5.37,0,0,1,3.06,2.31,8.43,8.43,0,0,1-2,5.52,3.44,3.44,0,0,1-2.48,1.09h-.11a5.88,5.88,0,0,1-3.88-1.59m200.28,32.83,0,0q3.74-1.55,7.54-3.28c14.5-6.66,27.93-14.15,42.15-22.08l8.55-4.75c12-6.65,29.67-13.36,45.54-14.05-9.3,2.64-18.23,7.64-26.36,13.66a1.39,1.39,0,0,0-.37.28c-13.32,10-24.47,22.64-31.58,32.11a1.23,1.23,0,0,0-.24.31l0,0c-2.51,3.37-4.5,6.31-5.88,8.55-4.2,6.83-17.55,21.28-37.1,33.09A137.41,137.41,0,0,1,209.19,254c-3,.8-6.15,1.57-9.27,2.34a121.41,121.41,0,0,1-24.24,2.67c14.34-24.69,36.07-46.35,63.47-63.14m-160-47.12a41.87,41.87,0,0,0,13.23,13.56c1.77,1.09,3.64,2.07,5.45,3,4,2.12,7.86,4.12,10.71,7.32a1,1,0,0,0,.31.25,75.7,75.7,0,0,0,18.84,20.21c-20.68-5.3-41.52-24-48.54-44.36m102.4,55.65c6.53-5.31,13-10.81,19.37-16.27,19.84-16.94,40.33-34.44,61.29-44.06l1.4-.63.72-.32h0c2.18-1,4.37-1.92,6.59-2.85,1.4-.59,2.83-1.18,4.32-1.76h0c-15.81,9.53-29.65,21.88-40.62,32.36-3.89,3.71-7.81,7.6-11.6,11.35-7.33,7.26-14.81,14.67-22.69,21.5a113.84,113.84,0,0,1-13.47.81c-1.78,0-3.56,0-5.33-.13m1.2-63.38a4.42,4.42,0,0,1-1.55-3,3.1,3.1,0,0,1,.62-2.32,3.52,3.52,0,0,1,2.65-1.17h.14a4.34,4.34,0,0,1,3.13,1.28,4.71,4.71,0,0,1,1.38,4.37,5.74,5.74,0,0,1-3.92,1.59,3.87,3.87,0,0,1-2.45-.79m200.38-9.45c.51-.88,1-1.78,1.46-2.69a88.1,88.1,0,0,1,7,11.58,101.17,101.17,0,0,0-8.41-8.89M224.85,184.09c3.78-3.75,7.69-7.62,11.56-11.32,14.33-13.69,33.59-30.6,55.61-40h0A291.3,291.3,0,0,1,323.73,125c13.07-2.39,32.27-3.41,49.46,5.41a52.28,52.28,0,0,1,5.54,3.31c-6.45,9.23-16.28,16.29-27.12,15.62a1,1,0,0,0-.29,0h0c-18.26-1.92-40.7,6.15-55.12,14.13l-8.56,4.76c-14.18,7.9-27.57,15.36-42,22-14.21,6.53-27.68,10.8-40.69,12.86,6.86-6.14,13.43-12.64,19.88-19M106.58,163.85c-3.93-13,5-27.41,15.88-34.89a73.89,73.89,0,0,1,8.91-5c2.16-1.07,4.39-2.18,6.51-3.43.44-.26.86-.52,1.27-.79-7.07,10.61-14.36,21.59-17.28,34.29-2.53,11-1,25.47,6,36a75.06,75.06,0,0,1-21.25-26.25m222.33-54a19.92,19.92,0,0,1-8.23-2.8c4.21.85,8.45,1.74,12.64,2.7a17.81,17.81,0,0,1-2.63.2,15.17,15.17,0,0,1-1.78-.1m28,4.09a144.19,144.19,0,0,0-14.95-4.73,18.28,18.28,0,0,0,5.28-5.08,17.23,17.23,0,0,0,2.1-4.26A104.37,104.37,0,0,1,369,112.26a84.05,84.05,0,0,1,13.89,14.32c-.51,1.1-1.07,2.18-1.67,3.25-7.82-7-16.63-12.92-24.33-15.87m-119.07,6a59.19,59.19,0,0,1-17-23.5A84,84,0,0,1,236.15,101a203.24,203.24,0,0,1,21.33,10.7c5.77,3.18,11.72,6.46,17.84,9.22,9,4.05,17.14,6.25,25.25,6.69-5,1.35-9.94,2.81-14.65,4.36a45.74,45.74,0,0,1-12.28,1.66c-12.26,0-24.91-4.74-35.84-13.76M338.87,92.4a6.72,6.72,0,0,0,4.87-3.2,7,7,0,0,0,.9-3.69l.08.09a14.25,14.25,0,0,1,2.76,10.56c-2.83-1.33-5.71-2.58-8.61-3.76m-4.71-4.85a3.3,3.3,0,0,1,.38-3.42,5.21,5.21,0,0,1,4.07-2l.46,0a6.82,6.82,0,0,1,2.46.77,5.84,5.84,0,0,1,0,5,4.32,4.32,0,0,1-3.35,2l-.4,0a4.08,4.08,0,0,1-3.61-2.38M99,163.1c-1.78-.93-3.61-1.89-5.3-2.94-8.87-5.49-15.77-15.75-18.09-26.82-2-16.67.9-34.9,8.6-51.91.62-1.35,1.26-2.7,1.93-4a33.29,33.29,0,0,0,.61,13.83,69.2,69.2,0,0,0,2.68,7.45c.46,1.14.94,2.32,1.38,3.48,1.76,4.72,3.74,11.36,3.52,14.57a1.21,1.21,0,0,0,0,.19,77.25,77.25,0,0,0-.07,11.27,97.31,97.31,0,0,0,9.91,36.59l0,.06c.28.56.56,1.12.86,1.67-2-1.26-4-2.35-6.06-3.41M96.85,128c-.1-1.49-.16-3-.17-4.52,1.77-10.39,8.66-21.26,17.16-27.07,5.7-3.9,12.18-6.17,19.45-8.53l1.08-.35c6.51-2.1,13.24-4.28,19.23-7.89a33.82,33.82,0,0,0,9.56-8.75A115.56,115.56,0,0,1,158.78,86c-3.2,8.38-7.94,16.19-12.89,23.73a29.82,29.82,0,0,1-9.31,8.65c-2.05,1.2-4.24,2.3-6.35,3.35a74.35,74.35,0,0,0-9.23,5.16c-9.31,6.41-17.27,17.64-17.88,29.16a97.51,97.51,0,0,1-6.27-28M316.67,84.24l-7.35-2.58c.46-4.11,2.14-10.28,4.44-13.88,8.5-13.33,27.85-15.27,42.57-10.3a41.11,41.11,0,0,1,19.5,14.08c6.16,8.17,9.76,16,11,23.8a55.41,55.41,0,0,1-2.61,28l-.2.53a86.5,86.5,0,0,0-13.42-13.63,107.89,107.89,0,0,0-20.66-12.93A16.83,16.83,0,0,0,346.72,84a11.1,11.1,0,0,0-7.38-4.39,7.77,7.77,0,0,0-6.87,3,5.9,5.9,0,0,0-.67,6,6.8,6.8,0,0,0,.82,1.38c-5.3-2-10.65-3.87-15.95-5.71M278.48,50.81a4.67,4.67,0,0,1,1.71-3.47,4.73,4.73,0,0,1,3-1.11,5.19,5.19,0,0,1,.68.05,5.11,5.11,0,0,1,3.53,2.63,3.81,3.81,0,0,1,.25,3.37c-.95,2.11-4.1,3.08-6.78,3.12a5.8,5.8,0,0,1-2.41-4.59m-2.1,67.8c-6-2.71-11.94-6-17.66-9.12a203.49,203.49,0,0,0-21.6-10.83,84.74,84.74,0,0,0-17.36-5,58.29,58.29,0,0,1-3.27-20.57A58.92,58.92,0,0,1,226,42.76c.12.34.24.7.37,1a81.26,81.26,0,0,0,19.72,30.1c15.31,14.83,36.75,25.24,63.71,30.93L315,105.9a23.57,23.57,0,0,0,13.69,6.53,20.76,20.76,0,0,0,9.85-1.42A150.77,150.77,0,0,1,356,116.35c6.52,2.5,14,7.35,20.95,13.2-.83-.48-1.68-1-2.54-1.39-17.83-9.15-37.63-8.12-51.1-5.65q-2.16.39-4.35.84a1.21,1.21,0,0,0-.68,0,60.7,60.7,0,0,1-14.52,1.84c-8.82,0-17.53-2.14-27.33-6.55M112.94,69.4a1.13,1.13,0,0,0,.26-.45c1.25-2.13,2.58-4.25,4-6.36,7.16-7.53,17.15-10.9,24.05-12.78,2.79-.76,5.66-1.45,8.44-2.11a136.74,136.74,0,0,0,17.16-4.91,30,30,0,0,0,4.24-2,130.23,130.23,0,0,0-5.76,20.34,29.9,29.9,0,0,1-13,16.28C146.54,80.91,140,83,133.58,85.1l-1.09.35c-7.18,2.33-14.13,4.76-20.11,8.85-6.22,4.25-11.62,11.06-15,18.48,1.81-14,7.19-29,15.56-43.38m-19.7,31.86c-.44-1.19-.93-2.39-1.39-3.54a63.22,63.22,0,0,1-2.59-7.17c-2.1-7.64-.75-17.08,3.53-24.65a118.56,118.56,0,0,1,29.76-31.15A37,37,0,0,0,115.67,44c-2.9,5.78-4.56,13.91-5,24.15-7.69,13.22-12.9,26.94-15.23,40-.88-3.17-1.91-6-2.25-6.89m225,2.68-2-.41-4.09-.84-1.79-.37c-26.48-5.59-47.49-15.77-62.45-30.27a77.7,77.7,0,0,1-20.1-31.9A58.28,58.28,0,0,1,235,32a120.18,120.18,0,0,0,8.62,11.51,116.87,116.87,0,0,0,30.49,25.63c10.23,6,21.4,10.35,32.55,14.34l2.54.9,6.68,2.34C326.27,90.3,336.9,94,347,98.75a14.37,14.37,0,0,1-1.87,4,16.53,16.53,0,0,1-6.8,5.6c-6.61-1.64-13.4-3-20.06-4.37M126.66,49.66c17.89-21.86,43.12-31,64.76-36.12a61.56,61.56,0,0,0-17.83,21.64c-1.7,2.64-5,4.16-7.7,5.21a136.21,136.21,0,0,1-16.84,4.81c-2.8.66-5.69,1.36-8.52,2.13a64.25,64.25,0,0,0-17.92,7.51q2-2.61,4-5.18M225,13.45a114.48,114.48,0,0,0,8.51,16.32,60.69,60.69,0,0,0-6.66,7.36A61.78,61.78,0,0,1,225,13.45M118,45.12c3.64-7.25,11.18-13.1,17.84-18.26l1.46-1.13A123.23,123.23,0,0,1,187.12,12a152.06,152.06,0,0,0-28.83,10.12c-13.72,6.58-24.72,15.07-33.62,26a153.62,153.62,0,0,0-11.09,15.37c.64-7.61,2.11-13.75,4.38-18.29M2.57,222A219.4,219.4,0,0,1,222,2.57c121,0,219.4,98.42,219.4,219.4a218.84,218.84,0,0,1-32.77,115.4A189.9,189.9,0,0,1,333,406.71c-12.3,6.24-22.93,10-32.51,11.63-12,2-23.55.83-33.27-3.34a41.36,41.36,0,0,1-22.53-23.27,41.78,41.78,0,0,1-.79-26.76c1.85-6,6.31-16.81,15.44-21.87,8.4-4.63,18.5-2.09,23.77-.17a110.09,110.09,0,0,1,13.15,6.16c3.2,1.67,6.5,3.39,9.88,4.86,2.92,1.26,6.38,2.53,10,2.43a18.77,18.77,0,0,0,10.73-4.21,43.51,43.51,0,0,0,8.25-8.07,133.26,133.26,0,0,0,8-11.9c1.56-2.62,3.21-5.71,3-9.08a11.94,11.94,0,0,0-4.22-8,16.74,16.74,0,0,0-2.75-1.94h.67c.73,0,1.47,0,2.2-.06,5.65-.36,9.64-3,11.25-7.32a11.45,11.45,0,0,0,.54-3.83,8.52,8.52,0,0,1,.48-3.22,7.34,7.34,0,0,1,3.88-3.47,29.13,29.13,0,0,1,3.38-1.17,22.18,22.18,0,0,0,5.36-2.17c5.65-3.51,7-10.88,6.37-16.12a40.14,40.14,0,0,0-2.5-9.1,46.27,46.27,0,0,1-2.15-7.16,97.12,97.12,0,0,1,1.6-44.36c3.68-13.08,5.47-27.38,5.47-43.77,0-.46-.4-11.48-8.61-17.6a18.75,18.75,0,0,0-6.26-3h0a33.91,33.91,0,0,0,12.47-7.13,46.59,46.59,0,0,0,7.49-8.44c11.47,8.73,18.77,21.88,18.83,34.82,0,6.82-1.81,13.63-3.58,20.21-1,3.73-2,7.58-2.75,11.44-2.5,13.59.67,25.24,8.45,31.15a1.33,1.33,0,0,0,.78.26,1.29,1.29,0,0,0,.77-2.31c-10.37-7.87-8.34-23.91-7.47-28.63.69-3.76,1.71-7.57,2.7-11.24,1.82-6.75,3.69-13.73,3.67-20.89,0-1.18-.07-2.38-.18-3.56a1.23,1.23,0,0,0,.12-.76,88.4,88.4,0,0,0-16.33-39.48c.29-.66.56-1.33.81-2A58.14,58.14,0,0,0,389.37,95c-1.31-8.27-5.07-16.43-11.49-24.94a43.75,43.75,0,0,0-20.73-15C341.48,49.76,320.8,52,311.59,66.4c-2.42,3.8-4.16,9.91-4.75,14.38C296,76.89,285.21,72.6,275.35,66.87a115.05,115.05,0,0,1-38.5-36.66A56.17,56.17,0,0,1,247.31,23a43.66,43.66,0,0,1,19.38-5.27c10.42-.2,20.49,4.36,26.27,11.9,5.15,6.73,6.78,17.4.59,23.62A12.24,12.24,0,0,1,286,57a7.29,7.29,0,0,0,4-3.63,6.32,6.32,0,0,0-.33-5.65,7.71,7.71,0,0,0-5.4-3.94,7.33,7.33,0,0,0-8.37,7c-.12,4.11,3.3,7.38,6.58,8.37,5.05,1.52,10.1-1.21,12.88-4,7.18-7.22,5.45-19.39-.37-27C288.73,19.93,277.86,15,266.63,15.2a46.28,46.28,0,0,0-20.53,5.57A57.33,57.33,0,0,0,235.47,28a114.37,114.37,0,0,1-9.75-19.79,1.28,1.28,0,0,0-2.46.19A63.47,63.47,0,0,0,225,39.71c-.66.94-1.29,1.92-1.89,2.9A61.49,61.49,0,0,0,213.92,73a60.44,60.44,0,0,0,3,20.2,67,67,0,0,0-8.24-.61c-10.53-.11-20,2.39-28.06,7.43a40.93,40.93,0,0,0-15.05,16c-3.83,7.53-4.48,15.59-1.8,22.13,2.78,6.76,9.54,11.37,16.15,11.37a13.68,13.68,0,0,0,2.55-.24,12.35,12.35,0,0,0,8.95-7.6,7.29,7.29,0,0,0-1.79-7.51,7,7,0,0,0-5.23-2.09,6.15,6.15,0,0,0-4.53,2.09,5.61,5.61,0,0,0-1.21,4.24,7,7,0,0,0,2.5,4.71,6.76,6.76,0,0,0,5.47,1.21,9.93,9.93,0,0,1-4.64,2.43c-6.19,1.17-13.14-3-15.84-9.59-2.4-5.84-1.78-13.12,1.71-20a38.4,38.4,0,0,1,14.12-15c11.84-7.37,24.84-8,35.88-6.3a62,62,0,0,0,18.32,26A63.71,63.71,0,0,0,261,134.73a51.82,51.82,0,0,0,12.53,1.57h.4c-1.38.54-2.73,1.09-4,1.64-2.22.94-4.43,1.89-6.62,2.87h0l-.06,0-.34.15-1.27.56-.23.11-.3.14c-19.46,8.75-37.62,18.53-55.26,28-19,10.23-38.56,20.79-59.7,30a52.44,52.44,0,0,1-7.67-3.07c-.84-.43-1.67-.86-2.49-1.32-11.6-9.49-14.63-27.69-11.61-40.81,2.82-12.3,10-23.12,17-33.6l.2-.3q1.25-1.87,2.5-3.73c1.34-2,2.69-4,4-6,.91-1.27,1.79-2.63,2.66-4.12v0a113.37,113.37,0,0,0,10.38-19.94c2.75-7.22,4.41-14.89,6-22.3,1.91-8.88,3.89-18,7.76-26.33.29-.62.6-1.23.9-1.83a10.27,10.27,0,0,0,.65-1.23.06.06,0,0,0,0,0c5.48-10.27,13.31-18.48,22.36-23.29h0l.08-.05.08-.06.06,0,.05,0,.07-.07.05-.06,0-.06.06-.08,0-.07s0,0,0-.06a.42.42,0,0,0,0-.1l0-.07s0,0,0-.06,0-.07,0-.11a.25.25,0,0,0,0-.08s0,0,0,0,0,0,0,0a.28.28,0,0,0,0-.09v-.1a.17.17,0,0,1,0-.07.06.06,0,0,1,0,0s0,0,0,0l0-.08a.24.24,0,0,0,0-.08.36.36,0,0,1,0-.09.08.08,0,0,1,0,0l0,0,0-.07-.07-.09,0,0-.05-.05-.07-.07-.06-.06-.05,0-.09-.06-.07,0-.06,0-.1,0-.07,0-.06,0h-.1l-.09,0h0c-23.2-1.39-47.83,5-69.37,18A120.64,120.64,0,0,0,90.73,64.36a.91.91,0,0,0-.11.16l0,.06A117.14,117.14,0,0,0,81.9,80.37C74.09,97.61,71.06,116.1,73,133.08a2.17,2.17,0,0,0,0,.36c0,.11,0,.22.07.34a79.17,79.17,0,0,0,3.43,15.33c7.79,23.36,33.21,44.72,56.75,47.73.42.25.83.49,1.25.72l.16.1c.87.48,1.75,1,2.63,1.39a51.88,51.88,0,0,0,5.31,2.3h0l-.64.27c-17.43,7.37-33.19,11.63-48.18,13-19.58,1.82-37.88-.76-50.18-7.08-13-6.68-26.1-21.13-26.14-38.39,0-7.14,1.59-12.74,4.94-17.13,1.92-2.53,6.36-4.59,11-5.11,3.65-.42,6.74.18,8.5,1.64a16.84,16.84,0,0,1,4.26,5.2A8.79,8.79,0,0,0,45,153.3a7.8,7.8,0,0,0-6.18.43A7.5,7.5,0,0,0,35,159.27,6.63,6.63,0,0,0,37.11,165a8.33,8.33,0,0,0,5.83,2.28,5.94,5.94,0,0,0,4.28-1.9,11,11,0,0,0,2.66-7.49,1.13,1.13,0,0,0,0-.26,9,9,0,0,0-.14-1.27c-.78-4.67-4.17-8.09-6.13-9.71-2.32-1.94-6-2.73-10.43-2.23-5.4.61-10.41,3-12.78,6.11-3.7,4.85-5.49,11-5.46,18.69.05,18.35,13.86,33.65,27.54,40.67,17.42,8.95,39.8,8.46,51.59,7.36,15.25-1.41,31.26-5.74,48.93-13.22q1.66-.69,3.3-1.41c9,2.73,18.76,3.53,28.39,4.08-15.78,12.44-32,23.29-48.9,29a1.28,1.28,0,0,0,.4,2.5H127c20.14,0,39.72-6.73,59.81-20.58a173.5,173.5,0,0,0,14.59-11.35A139.41,139.41,0,0,0,228.17,200c-23.69,16.31-42.6,36.45-55.44,59.05q-4.41-.07-9-.48c-8.3-.77-17-2-25.67-3.38a1.23,1.23,0,0,0-.82-.73c-8.66-2.43-16.78-6.9-24.63-11.22-8.23-4.52-16.73-9.2-26-11.65a55.14,55.14,0,0,0-10.24-1.69,1.23,1.23,0,0,0-.38,0,62.13,62.13,0,0,0-41.88,13c-8.39,6.61-15.67,17.29-19.46,28.56-.29.85-.55,1.69-.79,2.54a11,11,0,0,0-.48,1.27,1.23,1.23,0,0,0,0,.63A48.94,48.94,0,0,0,12,285.49,218.52,218.52,0,0,1,2.57,222M222,0A222.12,222.12,0,0,0,13.22,297.61a34,34,0,0,0,2.22,5.87c.65,1.63,1.32,3.27,2,4.89A221.79,221.79,0,0,0,218.72,443.91H222a224.78,224.78,0,0,0,30.4-2.07h.11l.12,0,0,0,.05,0,.12-.06.05,0,0,0a.61.61,0,0,0,.16-.12h0a.71.71,0,0,0,.15-.15v0l0,0,.08-.12,0,0,0-.05,0-.06s0,0,0,0l0-.08a.17.17,0,0,0,0-.07.44.44,0,0,0,0-.1.09.09,0,0,0,0,0v0a.22.22,0,0,0,0-.08.41.41,0,0,0,0-.11v-.14l0-.1a.19.19,0,0,0,0-.08.64.64,0,0,0,0-.07l0-.09,0-.07,0-.06-.06-.08-.05-.06,0,0-.07-.07-.06-.06-.05,0-.08-.06-.08,0-.06,0-.05,0c-15.94-6.34-27.84-24.87-32.65-40.55a1.23,1.23,0,0,0,0-.33,16.3,16.3,0,0,0-.69-2.15c-1.3-4.56-2.45-9.22-3.56-13.76-1.7-7-3.44-14.1-5.82-21a1.06,1.06,0,0,0-.09-.25h0a92.8,92.8,0,0,0-4.48-10.83c-4.21-8.5-10-16.17-15.58-23.58-3.51-4.67-7.15-9.5-10.34-14.47-7-10.83-14.24-27-9.33-42.34a1.31,1.31,0,0,0,0-.62c.59-1.22,1.21-2.44,1.83-3.66,6.33-1.65,12.7-3.17,19-4.68,3.1-.74,6.26-1.49,9.4-2.26h0c3.24-.69,6.39-1.49,9.43-2.38h0l1.05-.27a1.6,1.6,0,0,0,.3-.13A140.8,140.8,0,0,0,242.75,242a143.39,143.39,0,0,0,29.14-23.09c-14.24,21-30,35.73-47.83,44.79-2.21,1.13-4.51,2.21-6.73,3.26a112.6,112.6,0,0,0-14.68,7.82c-5.6,3.74-12.74,10.11-14.91,19.25a1.28,1.28,0,0,0,.59,1.4,1.21,1.21,0,0,0,.66.19,1.26,1.26,0,0,0,.85-.33c8.93-7.91,20-13.27,30.66-18.45,5.94-2.88,12.09-5.87,17.87-9.28,21.84-12.89,37.94-29.21,46.56-47.18,11.23-23.45,25.55-43.14,33.15-52.89,8.1-6,17-11,26.25-13.46,9.08-2.46,16.23-1.82,21.22,1.89,7.22,5.36,7.6,15.52,7.6,15.59,0,16.11-1.76,30.19-5.38,43a99.78,99.78,0,0,0-1.65,45.52,48.58,48.58,0,0,0,2.27,7.56,38.34,38.34,0,0,1,2.36,8.52c.5,4.5-.54,10.77-5.18,13.65a20.13,20.13,0,0,1-4.75,1.89,33.36,33.36,0,0,0-3.67,1.28,10.06,10.06,0,0,0-5.2,4.79,10.91,10.91,0,0,0-.69,4.19,9.28,9.28,0,0,1-.38,3c-1.58,4.29-5.77,5.44-9,5.64a59.65,59.65,0,0,1-11.25-.72c-1.34-.17-2.73-.34-4.1-.48a1.28,1.28,0,1,0-.26,2.55c1.34.14,2.71.31,4,.48l2.21.28,1.67.82a28.27,28.27,0,0,1,6,3.53,9.71,9.71,0,0,1,3.37,6.24c.15,2.65-1.23,5.22-2.66,7.62a130.2,130.2,0,0,1-7.8,11.67,40.63,40.63,0,0,1-7.76,7.57,16.52,16.52,0,0,1-9.25,3.68c-3.11.09-6.24-1.07-8.89-2.22-3.3-1.43-6.56-3.13-9.72-4.78A113.9,113.9,0,0,0,284,340.52c-5.69-2.08-16.61-4.8-25.9.34-7.35,4.06-13.27,12.36-16.65,23.35a44.4,44.4,0,0,0,.83,28.42,44,44,0,0,0,23.92,24.73c10.18,4.37,22.18,5.58,34.71,3.51,9.84-1.63,20.72-5.51,33.25-11.87a192.38,192.38,0,0,0,76.58-70.27A221.91,221.91,0,0,0,222,0Z"/></clipPath><linearGradient id="linear-gradient" x1="512.2" y1="-162.53" x2="513.2" y2="-162.53" gradientTransform="matrix(0, 817.85, 817.85, 0, 133143.07, -419023.7)" gradientUnits="userSpaceOnUse"><stop offset="0" stop-color="#f8e67d"/><stop offset="0.11" stop-color="#f8e67d"/><stop offset="0.25" stop-color="#f4e078"/><stop offset="0.42" stop-color="#e9d069"/><stop offset="0.61" stop-color="#d7b650"/><stop offset="0.82" stop-color="#be912e"/><stop offset="1" stop-color="#a56c0b"/></linearGradient><clipPath id="clip-path-2" transform="translate(202.95 202.95)"><path class="cls-1" d="M309.14,203.69a1.29,1.29,0,0,0,.49,2.53,51.29,51.29,0,0,1,23.53.94,26,26,0,0,1,9.68,4.6,13.05,13.05,0,0,1,5,8.67,1.28,1.28,0,0,0,1.28,1.17h.12a1.3,1.3,0,0,0,1.16-1.4,15.67,15.67,0,0,0-6-10.44,28.67,28.67,0,0,0-10.61-5.08,54.07,54.07,0,0,0-24.71-1"/></clipPath><linearGradient id="linear-gradient-2" x1="512.2" y1="-162.53" x2="513.2" y2="-162.53" gradientTransform="matrix(0, 817.85, 817.85, 0, 133252.57, -419118.06)" xlink:href="#linear-gradient"/><clipPath id="clip-path-3" transform="translate(202.95 202.95)"><path class="cls-1" d="M312.1,232a1.28,1.28,0,0,0,.28,1.79l.57.42a52.9,52.9,0,0,0,8.72,5.54c5.6,2.62,10,3.93,13.16,3.93a6.86,6.86,0,0,0,3.49-.79,4.66,4.66,0,0,0,2.25-3.92,1.29,1.29,0,0,0-2.57-.18,2.07,2.07,0,0,1-1,1.88c-1,.57-4.32,1.4-14.26-3.24a50,50,0,0,1-8.29-5.29l-.57-.42a1.28,1.28,0,0,0-1.8.28"/></clipPath><linearGradient id="linear-gradient-3" x1="512.2" y1="-162.53" x2="513.2" y2="-162.53" gradientTransform="matrix(0, 817.85, 817.85, 0, 133248.83, -419103.89)" xlink:href="#linear-gradient"/><clipPath id="clip-path-4" transform="translate(202.95 202.95)"><path class="cls-1" d="M629,192.79c3.24,1.52,6.24,4.19,6.25,11.87v86.52a28.68,28.68,0,0,1-3.67-5.74L585.7,192.79H569.46c2,.93,4,1.49,6.24,3.88v86.61c0,1.19,0,2.35-.06,3.43-.46,6.25-3.22,8.6-6.18,10h13.68c-3.24-1.51-6.24-4.18-6.25-11.86V198.06a34.69,34.69,0,0,1,3.58,5.92l46,92.72h16.24a20.42,20.42,0,0,1-6.2-4.22v-86a35,35,0,0,1,.26-5.39c.81-5,3.32-7,6-8.26Z"/></clipPath><linearGradient id="linear-gradient-4" x1="511.81" y1="-161.91" x2="512.81" y2="-161.91" gradientTransform="matrix(0, 1094.41, 1094.41, 0, 177801.68, -559944.49)" xlink:href="#linear-gradient"/><clipPath id="clip-path-5" transform="translate(202.95 202.95)"><path class="cls-1" d="M659.83,245.67c-.61-28,17.84-51.16,41.19-51.67a36.22,36.22,0,0,1,16.11,3.43c16.06,7.47,26.85,25.8,27.29,46.4.61,28-17.83,51.17-41.19,51.68h-.78c-23,0-42-22.12-42.62-49.84m36.34-52.54a52,52,0,1,0,12.24,0,56.32,56.32,0,0,0-6.32-.36,55.48,55.48,0,0,0-5.92.32"/></clipPath><linearGradient id="linear-gradient-5" x1="511.81" y1="-161.91" x2="512.81" y2="-161.91" gradientTransform="matrix(0, 1094.41, 1094.41, 0, 177897.71, -560040.37)" xlink:href="#linear-gradient"/><clipPath id="clip-path-6" transform="translate(202.95 202.95)"><path class="cls-1" d="M829.34,204.5V254c0,2.95,0,6.35-.13,8.84A49.25,49.25,0,0,1,826.36,277,29.09,29.09,0,0,1,819,288.22a25.78,25.78,0,0,1-9.44,5.5,27.52,27.52,0,0,1-9.15,1.38,26.91,26.91,0,0,1-8.61-1.65c-.82-.31-1.59-.65-2.32-1a22,22,0,0,1-6.38-4.87c-5.65-6.67-7.15-14.19-7.53-22.33-.17-4.68-.13-9.38-.13-14.07V204.55c0-7.69,3-10.36,6.25-11.88H759.55c3.25,1.52,6.25,4.19,6.25,11.88V253a122.41,122.41,0,0,0,.32,12.25c1.59,15.23,9,25.14,22.35,29.7.85.29,1.73.55,2.65.78a33.39,33.39,0,0,0,9.31,1,32.31,32.31,0,0,0,9.55-1.77,28.09,28.09,0,0,0,9.8-5.85,30.51,30.51,0,0,0,7.67-11.6,49,49,0,0,0,2.95-14.54c.2-3.56.13-7.13.13-10.7V206.49a38.42,38.42,0,0,1,.23-5.33c.76-5.15,3.31-7.22,6-8.5H823.1c3.23,1.52,6.23,4.19,6.24,11.84"/></clipPath><linearGradient id="linear-gradient-6" x1="511.81" y1="-161.91" x2="512.81" y2="-161.91" gradientTransform="matrix(0, 1094.41, 1094.41, 0, 177994.8, -560136.32)" xlink:href="#linear-gradient"/><clipPath id="clip-path-7" transform="translate(202.95 202.95)"><path class="cls-1" d="M928,192.8c3.24,1.52,2.22,5.76.19,11.95l-29.52,90-29.57-90c-2-6.19-1-10.43,2.27-11.95H851.29c2.8,1.31,4.5,3.31,6.58,8.92.9,2.14,1.25,3.63,2,6l29.24,89h10.15l29.54-90.11c.52-1.6,1.09-3.35,1.63-4.8,2.11-5.66,3.86-7.67,6.68-9Z"/></clipPath><linearGradient id="linear-gradient-7" x1="511.81" y1="-161.91" x2="512.81" y2="-161.91" gradientTransform="matrix(0, 1094.41, 1094.41, 0, 178090.79, -560232.17)" xlink:href="#linear-gradient"/><clipPath id="clip-path-8" transform="translate(202.95 202.95)"><path class="cls-1" d="M1268.94,192.8a11.08,11.08,0,0,1,3.57,2.47l-29.38,89.58c-2.59,7.89-4.43,10.34-7.67,11.85h9.14c-2.74-1.28-2.44-4.52-1-9.24.51-1.69.93-3,1.5-4.69l1.86-5.65c1.77-5.4,5.81-8.53,10.86-10.75s11.11-3.47,16.63-5c1.42-.41,2.8-.83,4.13-1.31h0c6-1.72,10.23-6.48,10.45-9.23.29-3.82-3.9-4.9-5.53-2.08s-.39,4.39-1.44,7a5.86,5.86,0,0,1-3.57,3h0c-1.39.51-2.85,1-4.37,1.41-5.46,1.55-11.54,2.8-16.78,5.1a22.82,22.82,0,0,0-8.46,5.95l24.57-74.88a29.77,29.77,0,0,1,3.74,8.2l9.42,28.68,4.12,12.55,12.8,39c2,6.19,1,10.42-2.27,11.94h20.06c-3.25-1.52-5-4-7.61-11.88l-30.24-92Z"/></clipPath><linearGradient id="linear-gradient-8" x1="511.81" y1="-161.91" x2="512.81" y2="-161.91" gradientTransform="matrix(0, 1094.41, 1094.41, 0, 178472.94, -560615.66)" xlink:href="#linear-gradient"/><clipPath id="clip-path-9" transform="translate(202.95 202.95)"><path class="cls-1" d="M958.51,192.8c3.25,1.52,6.25,4.19,6.25,11.88v80.14c0,7.69-3,10.36-6.25,11.88H1022v-7.43c-1.52,3.24-4.19,6.24-11.88,6.24H974.41V267.67a24.55,24.55,0,0,1,.77-7.56,14.51,14.51,0,0,1,6.39-7.32c4.36-2.75,10.27-4.56,16.22-6.45a97.91,97.91,0,0,0,11.19-4.12h0c5.39-2.2,8.95-6.63,9-9.23.12-3.83-4.11-4.71-5.62-1.83s-.08,4.45-1.12,7.11a6.83,6.83,0,0,1-3.07,3c-.35.16-.69.34-1.05.49-3,1.29-6.38,2.38-9.73,3.44-5.94,1.88-11.92,3.69-16.49,6.57a16.39,16.39,0,0,0-6.53,7.12V204c0-7.73,3.49-9.82,8.72-10h27c7.69,0,10.36,3,11.88,6.25V192.8Z"/></clipPath><linearGradient id="linear-gradient-9" x1="511.81" y1="-161.91" x2="512.81" y2="-161.91" gradientTransform="matrix(0, 1094.41, 1094.41, 0, 178185.73, -560328.06)" xlink:href="#linear-gradient"/><clipPath id="clip-path-10" transform="translate(202.95 202.95)"><path class="cls-1" d="M1055.08,192.8c3.24,1.52,6.25,4.19,6.25,11.88v80.14c0,7.69-3,10.36-6.25,11.88h49.29c6.42,0,11.81-3.13,12.82-5.71,1.4-3.57-2.29-5.82-4.67-3.61s-1.69,4.07-3.45,6.32c-1.16,1.48-3.89,1.77-4.59,1.81H1071V204.68c0-7.69,3-10.36,6.25-11.88Z"/></clipPath><linearGradient id="linear-gradient-10" x1="511.81" y1="-161.91" x2="512.81" y2="-161.91" gradientTransform="matrix(0, 1094.41, 1094.41, 0, 178281.31, -560424.44)" xlink:href="#linear-gradient"/><clipPath id="clip-path-11" transform="translate(202.95 202.95)"><path class="cls-1" d="M1151.12,192.8c3.25,1.52,6.25,4.19,6.25,11.88v80.14c0,7.69-3,10.36-6.25,11.88h49.29c6.42,0,11.81-3.13,12.82-5.71,1.4-3.57-2.29-5.82-4.67-3.61s-1.69,4.07-3.45,6.32c-1.16,1.48-3.89,1.77-4.59,1.81H1167V204.68c0-7.69,3-10.36,6.25-11.88Z"/></clipPath><linearGradient id="linear-gradient-11" x1="511.81" y1="-161.91" x2="512.81" y2="-161.91" gradientTransform="matrix(0, 1094.41, 1094.41, 0, 178377.23, -560520.36)" xlink:href="#linear-gradient"/></defs><g id="Layer_2" data-name="Layer 2"><g id="Layer_1-2" data-name="Layer 1"><g class="cls-2"><rect class="cls-3" x="-85.14" y="-85.14" width="614.22" height="614.22" transform="translate(117.8 489.89) rotate(-56.95)"/></g><g class="cls-4"><rect class="cls-5" x="309.74" y="189.19" width="39.01" height="45.93" transform="translate(174.79 575.35) rotate(-56.95)"/></g><g class="cls-6"><rect class="cls-7" x="313.14" y="222.08" width="26.02" height="30.91" transform="translate(152.11 584.29) rotate(-56.95)"/></g><g class="cls-8"><rect class="cls-9" x="552.13" y="205.22" width="107.92" height="79.06" transform="translate(530.15 1038.85) rotate(-86.73)"/></g><g class="cls-10"><rect class="cls-11" x="647.3" y="189.93" width="109.65" height="109.66" transform="translate(620.71 1134.74) rotate(-86.73)"/></g><g class="cls-12"><rect class="cls-13" x="743.99" y="203.21" width="108.36" height="83.04" transform="translate(711.31 1230.6) rotate(-86.73)"/></g><g class="cls-14"><rect class="cls-15" x="839.89" y="198.94" width="108.63" height="91.62" transform="translate(801.85 1326.51) rotate(-86.73)"/></g><g class="cls-16"><rect class="cls-17" x="1224.05" y="198.95" width="108.63" height="91.61" transform="translate(1164.13 1710.05) rotate(-86.73)"/></g><g class="cls-18"><rect class="cls-19" x="936.57" y="210.11" width="107.36" height="69.28" transform="translate(892.42 1422.39) rotate(-86.73)"/></g><g class="cls-20"><rect class="cls-21" x="1033.15" y="210.09" width="107.36" height="69.33" transform="translate(983.51 1518.82) rotate(-86.73)"/></g><g class="cls-22"><rect class="cls-23" x="1129.19" y="210.09" width="107.36" height="69.33" transform="translate(1074.08 1614.71) rotate(-86.73)"/></g><path class="cls-24" d="M699.38,341a7.9,7.9,0,0,1,2.66,6.42v.7a8.32,8.32,0,0,1-1.79,5.47,7,7,0,0,1-4.73,2.59q7.92.86,8,9.56-.06,4.89-2.74,7.62c-1.79,1.83-4.47,2.74-8,2.74H678.79l-.1-37.35h13.1Q696.71,338.79,699.38,341Zm-2.91,12.29a5.72,5.72,0,0,0,1.74-4.38v-.65a4.94,4.94,0,0,0-2-4.23,9,9,0,0,0-5.4-1.44h-8.22l0,12.35H691C693.5,355,695.3,354.43,696.47,353.33Zm1.07,17.33a6.53,6.53,0,0,0,2-5.08v-.39a6.56,6.56,0,0,0-2.16-5.31q-2.17-1.81-6.4-1.82h-8.32v14.45h9.27A8,8,0,0,0,697.54,370.66Z" transform="translate(202.95 202.95)"/><path class="cls-24" d="M737.4,338.79v3.79H718.92v12.5h15.29v3.68H718.92v13.6h19.13v3.78H714.84V338.79Z" transform="translate(202.95 202.95)"/><path class="cls-24" d="M765.33,338.79l13.5,37.35H774.1l-3.29-9.76H754.33l-3.54,9.76h-4.33L760,338.79Zm4.53,24.06-7.37-20.07-7.12,20.07Z" transform="translate(202.95 202.95)"/><path class="cls-24" d="M792.57,338.79V362.5c0,3.28.82,5.75,2.47,7.39s4.32,2.47,8,2.47,6.09-.83,7.52-2.47,2.14-4.26,2.14-7.84V338.79H817v23.86q0,6.92-3.41,10.28t-10.48,3.36q-7.27,0-11-3.36t-3.73-9.88V338.79Z" transform="translate(202.95 202.95)"/><path class="cls-24" d="M826.63,342.73v-3.94h28.48l-.05,3.94H842.81l.05,33.41h-4.23V342.73Z" transform="translate(202.95 202.95)"/><path class="cls-24" d="M861.83,338.79h4.83L877,357.32l9.46-18.53h4.78L878.81,361v15.14h-4.23V361Z" transform="translate(202.95 202.95)"/><path class="cls-24" d="M919.82,375.32a9.77,9.77,0,0,1-3.78-3.41,8.56,8.56,0,0,1-1.37-4.73,7.6,7.6,0,0,1,1.47-4.93,20.94,20.94,0,0,1,5.6-4.73l-.2-.25a25,25,0,0,1-3.14-4.46,8.43,8.43,0,0,1-1-3.91,7.93,7.93,0,0,1,1.12-4.13,8.17,8.17,0,0,1,3.08-3,8.53,8.53,0,0,1,4.31-1.12,8,8,0,0,1,4.06,1,7.24,7.24,0,0,1,2.76,2.81,7.92,7.92,0,0,1,1,3.93,8.06,8.06,0,0,1-1.15,4.19,13.14,13.14,0,0,1-3.68,3.78L926.67,358l8.06,9.86a14.69,14.69,0,0,0,2.15-6.53l3.48,0a23.3,23.3,0,0,1-1,5.06,16.06,16.06,0,0,1-2.1,4.25l4.54,5.38h-4.39l-2.69-3.24s-.09.15-.29.35a10.28,10.28,0,0,1-4.06,2.54,14.9,14.9,0,0,1-5,.85A11.59,11.59,0,0,1,919.82,375.32Zm0-11.65a5.11,5.11,0,0,0-1,3.21,5.8,5.8,0,0,0,1.94,4.46,7.19,7.19,0,0,0,4.88,1.81,8.86,8.86,0,0,0,6.72-2.93L923.88,360A21.62,21.62,0,0,0,919.8,363.67Zm9.63-12.48a6.4,6.4,0,0,0,.92-3.18,3.72,3.72,0,0,0-1.12-2.79,4.56,4.56,0,0,0-3.31-1.1,4.87,4.87,0,0,0-3.53,1.42,4.61,4.61,0,0,0-1.45,3.41,4.91,4.91,0,0,0,.7,2.47,44.31,44.31,0,0,0,3,4.26l2.14-1.6A9.13,9.13,0,0,0,929.43,351.19Z" transform="translate(202.95 202.95)"/><path class="cls-24" d="M988.66,338.74v3.84h-18v12.95h14.64v3.58H970.69v17H966.6v-37.4Z" transform="translate(202.95 202.95)"/><path class="cls-24" d="M1015.6,338.79l13.5,37.35h-4.73l-3.29-9.76H1004.6l-3.54,9.76h-4.33l13.49-37.35Zm4.53,24.06-7.37-20.07-7.12,20.07Z" transform="translate(202.95 202.95)"/><path class="cls-24" d="M1060.44,356.75a8.67,8.67,0,0,1,4,3.18,10,10,0,0,1,1.41,5.6,10.13,10.13,0,0,1-1.71,5.88,11.07,11.07,0,0,1-5,3.86,20.68,20.68,0,0,1-7.9,1.37,17.82,17.82,0,0,1-6.72-1.25,11.16,11.16,0,0,1-5-4,12,12,0,0,1-1.94-7.07h3.54a8.5,8.5,0,0,0,2.36,5.92q2.37,2.6,8.19,2.59A13.06,13.06,0,0,0,1059,371a5.75,5.75,0,0,0,2.84-5,5.85,5.85,0,0,0-1.09-3.71,7.56,7.56,0,0,0-3.52-2.19,41.13,41.13,0,0,0-6.79-1.47c-4.19-.59-7.34-1.66-9.46-3.18a7.81,7.81,0,0,1-3.19-6.78,9.14,9.14,0,0,1,3.56-7.64q3.56-2.76,9.73-2.76c3.89,0,7,.89,9.24,2.69a11.08,11.08,0,0,1,4.06,7.66h-3.88a6.72,6.72,0,0,0-3-4.85,11.14,11.14,0,0,0-6.43-1.77,12.56,12.56,0,0,0-6.87,1.59,5.22,5.22,0,0,0-2.44,4.64,4.29,4.29,0,0,0,1.27,3.18,9.7,9.7,0,0,0,3.81,2.07,48.61,48.61,0,0,0,6.82,1.52A31.6,31.6,0,0,1,1060.44,356.75Z" transform="translate(202.95 202.95)"/><path class="cls-24" d="M1081,338.79v17.38h20.57V338.79h4.08v37.35h-4.08V360H1081v16.18h-4.08V338.79Z" transform="translate(202.95 202.95)"/><path class="cls-24" d="M1123.06,338.79v37.35h-4.18V338.79Z" transform="translate(202.95 202.95)"/><path class="cls-24" d="M1143.4,374.25a16.56,16.56,0,0,1-6.47-6.52,19.37,19.37,0,0,1-2.32-9.57v-1.59a18.73,18.73,0,0,1,2.47-9.41,17.36,17.36,0,0,1,6.57-6.55,19.52,19.52,0,0,1,18.57,0,17.1,17.1,0,0,1,6.55,6.47,18.64,18.64,0,0,1,2.44,9.31v1.69a19.46,19.46,0,0,1-2.34,9.57,16.81,16.81,0,0,1-6.47,6.59,18.62,18.62,0,0,1-9.42,2.37A19.21,19.21,0,0,1,1143.4,374.25Zm16.71-3.56a13.66,13.66,0,0,0,5-5.23,15.14,15.14,0,0,0,1.82-7.4v-1.69a14.15,14.15,0,0,0-1.87-7.19,14,14,0,0,0-24.3,0,14.36,14.36,0,0,0-1.87,7.24v1.74a15.39,15.39,0,0,0,1.79,7.47,12.88,12.88,0,0,0,5,5.13,14.37,14.37,0,0,0,7.29,1.85A13.56,13.56,0,0,0,1160.11,370.69Z" transform="translate(202.95 202.95)"/><path class="cls-24" d="M1187.64,338.79,1208,369.47V338.79h4v37.35h-4.18l-21.46-32.27v32.27h-4V338.79Z" transform="translate(202.95 202.95)"/></g></g></svg>